<svg width="146" height="83" viewBox="0 0 146 83" fill="none" xmlns="http://www.w3.org/2000/svg">
<path fill-rule="evenodd" clip-rule="evenodd" d="M104.772 28.1974L121.046 8.45594C122.451 6.75131 124.972 6.50857 126.676 7.91375L136.374 15.9082C138.079 17.3134 138.322 19.8344 136.917 21.539L111.725 52.0985C110.32 53.8031 107.799 54.0459 106.094 52.6407L97.1052 45.2305L93.9248 49.0886L102.914 56.4988C106.749 59.6605 112.422 59.1143 115.583 55.2789L140.775 24.7194C143.936 20.884 143.39 15.2117 139.555 12.05L129.857 4.05563C126.021 0.893964 120.349 1.44014 117.187 5.27555L100.914 25.017L104.772 28.1974Z" fill="black"/>
<path fill-rule="evenodd" clip-rule="evenodd" d="M61.9138 61.243L87.1051 30.6835C88.5103 28.9788 91.0313 28.7361 92.7359 30.1413L102.434 38.1357C102.825 38.458 103.139 38.8389 103.374 39.2553L106.651 35.28C106.337 34.9243 105.992 34.5888 105.614 34.2776L95.9163 26.2832C92.0809 23.1215 86.4086 23.6677 83.247 27.5031L58.0556 58.0626C54.894 61.898 55.4401 67.5703 59.2755 70.7319L68.9736 78.7263C72.809 81.888 78.4812 81.3418 81.6429 77.5064L97.1071 58.7468L93.249 55.5664L77.7848 74.326C76.3796 76.0307 73.8586 76.2734 72.1539 74.8682L62.4559 66.8738C60.7513 65.4686 60.5086 62.9476 61.9138 61.243Z" fill="black"/>
</svg>
