<svg width="120" height="120" viewBox="0 0 120 120" fill="none" xmlns="http://www.w3.org/2000/svg">
<mask id="mask0" mask-type="alpha" maskUnits="userSpaceOnUse" x="0" y="0" width="120" height="40">
<rect width="120" height="40" fill="#C4C4C4"/>
</mask>
<g mask="url(#mask0)">
<mask id="mask1" mask-type="alpha" maskUnits="userSpaceOnUse" x="0" y="0" width="120" height="120">
<circle cx="60" cy="60" r="59" fill="black" stroke="white" stroke-width="2"/>
</mask>
<g mask="url(#mask1)">
<line y1="19" x2="120" y2="19" stroke="white" stroke-width="2"/>
<line x1="60" x2="60" y2="120" stroke="white" stroke-width="2"/>
<line y1="39" x2="120" y2="39" stroke="white" stroke-width="2"/>
</g>
<circle cx="60" cy="60" r="59" stroke="white" stroke-width="2"/>
<path d="M104 60C104 76.3731 99.0214 91.1577 91.0198 101.826C83.0185 112.495 72.0411 119 60 119C47.9589 119 36.9815 112.495 28.9802 101.826C20.9786 91.1577 16 76.3731 16 60C16 43.6269 20.9786 28.8423 28.9802 18.1736C36.9815 7.50515 47.9589 1 60 1C72.0411 1 83.0185 7.50515 91.0198 18.1736C99.0214 28.8423 104 43.6269 104 60Z" stroke="white" stroke-width="2"/>
<path d="M89 60C89 76.447 85.6646 91.2874 80.3188 101.979C74.943 112.731 67.7014 119 60 119C52.2986 119 45.057 112.731 39.6812 101.979C34.3354 91.2874 31 76.447 31 60C31 43.553 34.3354 28.7126 39.6812 18.0208C45.057 7.26925 52.2986 1 60 1C67.7014 1 74.943 7.26925 80.3188 18.0208C85.6646 28.7126 89 43.553 89 60Z" stroke="white" stroke-width="2"/>
<path d="M74 60C74 76.5114 72.3259 91.4261 69.6365 102.184C68.2898 107.57 66.7022 111.859 64.9778 114.776C63.2138 117.76 61.4992 119 60 119C58.5008 119 56.7862 117.76 55.0222 114.776C53.2978 111.859 51.7102 107.57 50.3635 102.184C47.6741 91.4261 46 76.5114 46 60C46 43.4886 47.6741 28.5739 50.3635 17.8161C51.7102 12.4296 53.2978 8.14138 55.0222 5.22393C56.7862 2.23953 58.5008 1 60 1C61.4992 1 63.2138 2.23953 64.9778 5.22393C66.7022 8.14138 68.2898 12.4296 69.6365 17.8161C72.3259 28.5739 74 43.4886 74 60Z" stroke="white" stroke-width="2"/>
</g>
<mask id="mask2" mask-type="alpha" maskUnits="userSpaceOnUse" x="0" y="80" width="120" height="40">
<rect x="120" y="120" width="120" height="40" transform="rotate(-180 120 120)" fill="#C4C4C4"/>
</mask>
<g mask="url(#mask2)">
<mask id="mask3" mask-type="alpha" maskUnits="userSpaceOnUse" x="0" y="0" width="120" height="120">
<circle cx="60" cy="60" r="59" transform="rotate(-180 60 60)" fill="black" stroke="white" stroke-width="2"/>
</mask>
<g mask="url(#mask3)">
<line x1="120" y1="101" y2="101" stroke="white" stroke-width="2"/>
<line x1="60" y1="120" x2="60" stroke="white" stroke-width="2"/>
<line x1="120" y1="81" y2="81" stroke="white" stroke-width="2"/>
</g>
<circle cx="60" cy="60" r="59" transform="rotate(-180 60 60)" stroke="white" stroke-width="2"/>
<path d="M16 60C16 43.6269 20.9786 28.8423 28.9802 18.1736C36.9815 7.50516 47.9589 1 60 1C72.0411 1 83.0185 7.50516 91.0198 18.1736C99.0214 28.8423 104 43.6269 104 60C104 76.3731 99.0214 91.1577 91.0198 101.826C83.0185 112.495 72.0411 119 60 119C47.9589 119 36.9815 112.495 28.9802 101.826C20.9786 91.1577 16 76.3731 16 60Z" stroke="white" stroke-width="2"/>
<path d="M31 60C31 43.553 34.3354 28.7126 39.6812 18.0208C45.057 7.26925 52.2986 1 60 1C67.7014 1 74.943 7.26925 80.3188 18.0208C85.6646 28.7126 89 43.553 89 60C89 76.447 85.6646 91.2874 80.3188 101.979C74.943 112.731 67.7014 119 60 119C52.2986 119 45.057 112.731 39.6812 101.979C34.3354 91.2874 31 76.447 31 60Z" stroke="white" stroke-width="2"/>
<path d="M74 60C74 76.5114 72.3259 91.4261 69.6365 102.184C68.2898 107.57 66.7022 111.859 64.9778 114.776C63.2138 117.76 61.4992 119 60 119C58.5008 119 56.7862 117.76 55.0222 114.776C53.2978 111.859 51.7102 107.57 50.3635 102.184C47.6741 91.4261 46 76.5114 46 60C46 43.4886 47.6741 28.5739 50.3635 17.8161C51.7102 12.4296 53.2978 8.14138 55.0222 5.22393C56.7862 2.23953 58.5008 1 60 1C61.4992 1 63.2138 2.23953 64.9778 5.22393C66.7022 8.14138 68.2898 12.4296 69.6365 17.8161C72.3259 28.5739 74 43.4886 74 60Z" stroke="white" stroke-width="2"/>
</g>
<circle cx="60" cy="60" r="59" stroke="white" stroke-width="2"/>
<path d="M21.8376 52V62.5078C21.8376 64.4844 20.2516 65.6328 18.236 65.6328C16.2282 65.6328 14.6423 64.4844 14.6423 62.5078V52H11.7438V62.5781C11.7438 66.2031 14.5251 68.2422 18.236 68.2422C21.9313 68.2422 24.7282 66.2031 24.7282 62.5781V52H21.8376ZM27.4386 68H30.337V62.5937H33.3995C37.0948 62.5937 39.0792 60.375 39.0792 57.2969C39.0792 54.2422 37.1183 52 33.4386 52H27.4386V68ZM30.337 60.2109V54.4219H32.9933C35.1652 54.4219 36.1261 55.5937 36.1261 57.2969C36.1261 59 35.1652 60.2109 33.0089 60.2109H30.337ZM49.8521 56.3984H52.6412C52.5865 53.6953 50.2818 51.7812 46.8755 51.7812C43.5162 51.7812 40.9927 53.6719 41.0005 56.5C41.0005 58.7969 42.6334 60.1172 45.2662 60.7969L47.0865 61.2656C48.813 61.7031 49.9537 62.2422 49.9615 63.4844C49.9537 64.8516 48.6568 65.7656 46.7662 65.7656C44.9537 65.7656 43.5474 64.9531 43.4302 63.2734H40.5787C40.6959 66.4531 43.063 68.2422 46.7896 68.2422C50.6255 68.2422 52.8521 66.3281 52.8599 63.5078C52.8521 60.7344 50.563 59.4687 48.1568 58.8984L46.6568 58.5234C45.3443 58.2109 43.9224 57.6562 43.938 56.3203C43.9459 55.1172 45.024 54.2344 46.8365 54.2344C48.563 54.2344 49.7037 55.0391 49.8521 56.3984ZM54.3008 54.4297H59.2461V68H62.1211V54.4297H67.0664V52H54.3008V54.4297ZM69.2084 68L70.5288 64.0547H76.5444L77.8725 68H80.9663L75.3256 52H71.7475L66.1147 68H69.2084ZM71.31 61.7266L73.4741 55.2812H73.5991L75.7631 61.7266H71.31ZM92.6005 57.1094H95.5536C95.0614 53.9687 92.3427 51.7812 88.8036 51.7812C84.6161 51.7812 81.4755 54.8594 81.4755 60.0156C81.4755 65.0781 84.4755 68.2187 88.8895 68.2187C92.8505 68.2187 95.6864 65.6719 95.6864 61.5469V59.625H89.1942V61.8906H92.8817C92.8348 64.1719 91.3114 65.6172 88.9052 65.6172C86.2255 65.6172 84.3895 63.6094 84.3895 59.9844C84.3895 56.3828 86.2567 54.3828 88.8427 54.3828C90.7723 54.3828 92.0848 55.4141 92.6005 57.1094ZM98.0491 68H108.518V65.5703H100.948V61.2031H107.916V58.7734H100.948V54.4297H108.455V52H98.0491V68Z" fill="white"/>
</svg>
