<svg width="120" height="120" viewBox="0 0 120 120" fill="none" xmlns="http://www.w3.org/2000/svg">
<mask id="mask0" mask-type="alpha" maskUnits="userSpaceOnUse" x="0" y="0" width="120" height="40">
<rect width="120" height="40" fill="#C4C4C4"/>
</mask>
<g mask="url(#mask0)">
<mask id="mask1" mask-type="alpha" maskUnits="userSpaceOnUse" x="0" y="0" width="120" height="120">
<circle cx="60" cy="60" r="59" fill="black" stroke="black" stroke-width="2"/>
</mask>
<g mask="url(#mask1)">
<line y1="19" x2="120" y2="19" stroke="black" stroke-width="2"/>
<line x1="60" x2="60" y2="120" stroke="black" stroke-width="2"/>
<line y1="39" x2="120" y2="39" stroke="black" stroke-width="2"/>
</g>
<circle cx="60" cy="60" r="59" stroke="black" stroke-width="2"/>
<path d="M104 60C104 76.3731 99.0214 91.1577 91.0198 101.826C83.0185 112.495 72.0411 119 60 119C47.9589 119 36.9815 112.495 28.9802 101.826C20.9786 91.1577 16 76.3731 16 60C16 43.6269 20.9786 28.8423 28.9802 18.1736C36.9815 7.50515 47.9589 1 60 1C72.0411 1 83.0185 7.50515 91.0198 18.1736C99.0214 28.8423 104 43.6269 104 60Z" stroke="black" stroke-width="2"/>
<path d="M89 60C89 76.447 85.6646 91.2874 80.3188 101.979C74.943 112.731 67.7014 119 60 119C52.2986 119 45.057 112.731 39.6812 101.979C34.3354 91.2874 31 76.447 31 60C31 43.553 34.3354 28.7126 39.6812 18.0208C45.057 7.26925 52.2986 1 60 1C67.7014 1 74.943 7.26925 80.3188 18.0208C85.6646 28.7126 89 43.553 89 60Z" stroke="black" stroke-width="2"/>
<path d="M74 60C74 76.5114 72.3259 91.4261 69.6365 102.184C68.2898 107.57 66.7022 111.859 64.9778 114.776C63.2138 117.76 61.4992 119 60 119C58.5008 119 56.7862 117.76 55.0222 114.776C53.2978 111.859 51.7102 107.57 50.3635 102.184C47.6741 91.4261 46 76.5114 46 60C46 43.4886 47.6741 28.5739 50.3635 17.8161C51.7102 12.4296 53.2978 8.14138 55.0222 5.22393C56.7862 2.23953 58.5008 1 60 1C61.4992 1 63.2138 2.23953 64.9778 5.22393C66.7022 8.14138 68.2898 12.4296 69.6365 17.8161C72.3259 28.5739 74 43.4886 74 60Z" stroke="black" stroke-width="2"/>
</g>
<mask id="mask2" mask-type="alpha" maskUnits="userSpaceOnUse" x="0" y="80" width="120" height="40">
<rect x="120" y="120" width="120" height="40" transform="rotate(-180 120 120)" fill="#C4C4C4"/>
</mask>
<g mask="url(#mask2)">
<mask id="mask3" mask-type="alpha" maskUnits="userSpaceOnUse" x="0" y="0" width="120" height="120">
<circle cx="60" cy="60" r="59" transform="rotate(-180 60 60)" fill="black" stroke="black" stroke-width="2"/>
</mask>
<g mask="url(#mask3)">
<line x1="120" y1="101" y2="101" stroke="black" stroke-width="2"/>
<line x1="60" y1="120" x2="60" stroke="black" stroke-width="2"/>
<line x1="120" y1="81" y2="81" stroke="black" stroke-width="2"/>
</g>
<circle cx="60" cy="60" r="59" transform="rotate(-180 60 60)" stroke="black" stroke-width="2"/>
<path d="M16 60C16 43.6269 20.9786 28.8423 28.9802 18.1736C36.9815 7.50516 47.9589 1 60 1C72.0411 1 83.0185 7.50516 91.0198 18.1736C99.0214 28.8423 104 43.6269 104 60C104 76.3731 99.0214 91.1577 91.0198 101.826C83.0185 112.495 72.0411 119 60 119C47.9589 119 36.9815 112.495 28.9802 101.826C20.9786 91.1577 16 76.3731 16 60Z" stroke="black" stroke-width="2"/>
<path d="M31 60C31 43.553 34.3354 28.7126 39.6812 18.0208C45.057 7.26925 52.2986 1 60 1C67.7014 1 74.943 7.26925 80.3188 18.0208C85.6646 28.7126 89 43.553 89 60C89 76.447 85.6646 91.2874 80.3188 101.979C74.943 112.731 67.7014 119 60 119C52.2986 119 45.057 112.731 39.6812 101.979C34.3354 91.2874 31 76.447 31 60Z" stroke="black" stroke-width="2"/>
<path d="M74 60C74 76.5114 72.3259 91.4261 69.6365 102.184C68.2898 107.57 66.7022 111.859 64.9778 114.776C63.2138 117.76 61.4992 119 60 119C58.5008 119 56.7862 117.76 55.0222 114.776C53.2978 111.859 51.7102 107.57 50.3635 102.184C47.6741 91.4261 46 76.5114 46 60C46 43.4886 47.6741 28.5739 50.3635 17.8161C51.7102 12.4296 53.2978 8.14138 55.0222 5.22393C56.7862 2.23953 58.5008 1 60 1C61.4992 1 63.2138 2.23953 64.9778 5.22393C66.7022 8.14138 68.2898 12.4296 69.6365 17.8161C72.3259 28.5739 74 43.4886 74 60Z" stroke="black" stroke-width="2"/>
</g>
<circle cx="60" cy="60" r="59" stroke="black" stroke-width="2"/>
<path d="M17.6094 52.644V62.082C17.6094 63.2847 17.8367 64.1867 18.2914 64.788C18.7607 65.3893 19.5454 65.69 20.6454 65.69C21.7454 65.69 22.5227 65.3893 22.9774 64.788C23.4467 64.1867 23.6814 63.2847 23.6814 62.082V52.644H26.5414V61.708C26.5414 62.8373 26.4314 63.8127 26.2114 64.634C26.006 65.4553 25.6687 66.1373 25.1994 66.68C24.73 67.2227 24.114 67.626 23.3514 67.89C22.6034 68.1393 21.694 68.264 20.6234 68.264C19.538 68.264 18.6214 68.1393 17.8734 67.89C17.14 67.626 16.5387 67.2227 16.0694 66.68C15.6 66.1373 15.2627 65.4553 15.0574 64.634C14.852 63.8127 14.7494 62.8373 14.7494 61.708V52.644H17.6094ZM29.6088 68V52.644H36.5168C37.2208 52.644 37.8515 52.7613 38.4088 52.996C38.9808 53.216 39.4648 53.5387 39.8608 53.964C40.2568 54.3747 40.5575 54.8733 40.7628 55.46C40.9681 56.0467 41.0708 56.692 41.0708 57.396C41.0708 58.1147 40.9681 58.7673 40.7628 59.354C40.5575 59.926 40.2568 60.4247 39.8608 60.85C39.4648 61.2607 38.9808 61.5833 38.4088 61.818C37.8515 62.038 37.2208 62.148 36.5168 62.148H32.5128V68H29.6088ZM32.5128 59.64H36.2528C36.8101 59.64 37.2501 59.4933 37.5728 59.2C37.8955 58.892 38.0568 58.4593 38.0568 57.902V56.89C38.0568 56.3327 37.8955 55.9073 37.5728 55.614C37.2501 55.3207 36.8101 55.174 36.2528 55.174H32.5128V59.64ZM47.8862 68.264C46.5662 68.264 45.4442 68.0293 44.5202 67.56C43.6108 67.0907 42.8262 66.4747 42.1662 65.712L44.1242 63.82C44.6522 64.436 45.2388 64.9053 45.8842 65.228C46.5442 65.5507 47.2702 65.712 48.0622 65.712C48.9568 65.712 49.6315 65.5213 50.0862 65.14C50.5408 64.744 50.7682 64.216 50.7682 63.556C50.7682 63.0427 50.6215 62.6247 50.3282 62.302C50.0348 61.9793 49.4848 61.7447 48.6782 61.598L47.2262 61.378C44.1608 60.894 42.6282 59.4053 42.6282 56.912C42.6282 56.2227 42.7528 55.5993 43.0022 55.042C43.2662 54.4847 43.6402 54.008 44.1242 53.612C44.6082 53.216 45.1875 52.9153 45.8622 52.71C46.5515 52.49 47.3288 52.38 48.1942 52.38C49.3528 52.38 50.3648 52.5707 51.2302 52.952C52.0955 53.3333 52.8362 53.898 53.4522 54.646L51.4722 56.516C51.0908 56.0467 50.6288 55.6653 50.0862 55.372C49.5435 55.0787 48.8615 54.932 48.0402 54.932C47.2042 54.932 46.5735 55.0933 46.1482 55.416C45.7375 55.724 45.5322 56.164 45.5322 56.736C45.5322 57.3227 45.7008 57.7553 46.0382 58.034C46.3755 58.3127 46.9182 58.518 47.6662 58.65L49.0962 58.914C50.6508 59.1927 51.7948 59.6913 52.5282 60.41C53.2762 61.114 53.6502 62.104 53.6502 63.38C53.6502 64.1133 53.5182 64.7807 53.2542 65.382C53.0048 65.9687 52.6308 66.482 52.1322 66.922C51.6482 67.3473 51.0468 67.6773 50.3282 67.912C49.6242 68.1467 48.8102 68.264 47.8862 68.264ZM61.7197 55.218V68H58.8157V55.218H54.4597V52.644H66.0757V55.218H61.7197ZM76.078 68L74.846 64.084H69.39L68.18 68H65.232L70.38 52.644H73.988L79.092 68H76.078ZM72.162 55.284H72.052L70.094 61.598H74.142L72.162 55.284ZM90.1251 65.624H90.0371C89.9051 66.372 89.4871 67.0027 88.7831 67.516C88.0938 68.0147 87.1698 68.264 86.0111 68.264C85.1018 68.264 84.2585 68.0953 83.4811 67.758C82.7185 67.4207 82.0511 66.922 81.4791 66.262C80.9218 65.5873 80.4818 64.7587 80.1591 63.776C79.8365 62.7933 79.6751 61.6567 79.6751 60.366C79.6751 59.0753 79.8365 57.9387 80.1591 56.956C80.4965 55.9587 80.9658 55.1227 81.5671 54.448C82.1685 53.7733 82.8871 53.26 83.7231 52.908C84.5591 52.556 85.4905 52.38 86.5171 52.38C87.8958 52.38 89.0691 52.6807 90.0371 53.282C91.0051 53.8833 91.7678 54.7487 92.3251 55.878L89.9711 57.264C89.6925 56.604 89.2745 56.054 88.7171 55.614C88.1745 55.174 87.4411 54.954 86.5171 54.954C85.3731 54.954 84.4565 55.306 83.7671 56.01C83.0925 56.6993 82.7551 57.726 82.7551 59.09V61.554C82.7551 62.9033 83.0998 63.93 83.7891 64.634C84.4785 65.338 85.4025 65.69 86.5611 65.69C87.0158 65.69 87.4411 65.6387 87.8371 65.536C88.2331 65.4187 88.5778 65.25 88.8711 65.03C89.1645 64.81 89.3991 64.5387 89.5751 64.216C89.7511 63.8933 89.8391 63.512 89.8391 63.072V62.082H86.8251V59.64H92.6331V68H90.1251V65.624ZM95.5572 68V52.644H105.677V55.218H98.4612V58.936H104.841V61.51H98.4612V65.426H105.677V68H95.5572Z" fill="black"/>
</svg>
