<svg width="71" height="100" viewBox="0 0 71 100" fill="none" xmlns="http://www.w3.org/2000/svg">
<path fill-rule="evenodd" clip-rule="evenodd" d="M25 29H4H0V33V96V100H4H67H71V96V33V29H67H45V33H67V96H4V33H25V29Z" fill="black"/>
<path d="M36.4142 2.58579C35.6332 1.80474 34.3668 1.80474 33.5858 2.58579L20.8579 15.3137C20.0768 16.0948 20.0768 17.3611 20.8579 18.1421C21.6389 18.9232 22.9052 18.9232 23.6863 18.1421L35 6.82843L46.3137 18.1421C47.0948 18.9232 48.3611 18.9232 49.1421 18.1421C49.9232 17.3611 49.9232 16.0948 49.1421 15.3137L36.4142 2.58579ZM37 66L37 4H33L33 66H37Z" fill="black"/>
</svg>
